<svg width="6" height="10" viewBox="0 0 6 10" fill="none" xmlns="http://www.w3.org/2000/svg">
    <path d="M5.71539 4.6098L1.26526 0.159755C1.16233 0.0567475 1.02494 0 0.878433 0C0.73193 0 0.594533 0.0567475 0.491607 0.159755L0.163886 0.487394C-0.0493644 0.700889 -0.0493644 1.04788 0.163886 1.26105L3.90077 4.99793L0.15974 8.73895C0.0568136 8.84196 -1.52588e-05 8.97928 -1.52588e-05 9.1257C-1.52588e-05 9.27228 0.0568136 9.4096 0.15974 9.51269L0.48746 9.84025C0.590468 9.94325 0.727784 10 0.874287 10C1.02079 10 1.15819 9.94325 1.26111 9.84025L5.71539 5.38614C5.81856 5.2828 5.87522 5.14484 5.8749 4.99817C5.87522 4.85094 5.81856 4.71305 5.71539 4.6098Z" fill="#3B434E"/>
</svg>
